<?xml version="1.0" encoding="UTF-8"?>
<svg width="24px" height="24px" viewBox="0 0 24 24" version="1.1" xmlns="http://www.w3.org/2000/svg" xmlns:xlink="http://www.w3.org/1999/xlink">
    <!-- Generator: Sketch 64 (93537) - https://sketch.com -->
    <title>@1xIconly/Bold/Game</title>
    <desc>Created with Sketch.</desc>
    <g id="Iconly/Bold/Game" stroke="none" stroke-width="1" fill="none" fill-rule="evenodd">
        <g id="Game" transform="translate(2.000000, 2.000000)" fill="#200E32" fill-rule="nonzero">
            <path d="M14.7988224,14.4315992 L14.7006869,14.4315992 C14.2875368,14.4315992 13.9646712,14.1136802 13.9646712,13.7090559 C13.9646712,13.3140655 14.2875368,12.9865125 14.7006869,12.9865125 L14.7988224,12.9865125 C15.2011776,12.9865125 15.5348381,13.3140655 15.5348381,13.7090559 C15.5348381,14.1136802 15.2011776,14.4315992 14.7988224,14.4315992 M13.1207066,11.1175337 L13.0225711,11.1175337 C12.6104024,11.1175337 12.2865554,10.7996146 12.2865554,10.3949904 C12.2865554,10 12.6104024,9.67244701 13.0225711,9.67244701 L13.1207066,9.67244701 C13.5230618,9.67244701 13.8567223,10 13.8567223,10.3949904 C13.8567223,10.7996146 13.5230618,11.1175337 13.1207066,11.1175337 M8.85181551,12.7456647 L7.82139352,12.7456647 L7.82139352,13.7668593 C7.82139352,14.1618497 7.48773307,14.4894027 7.08537782,14.4894027 C6.67320903,14.4894027 6.34936212,14.1618497 6.34936212,13.7668593 L6.34936212,12.7456647 L5.30912659,12.7456647 C4.90677134,12.7456647 4.57311089,12.4277457 4.57311089,12.0231214 C4.57311089,11.628131 4.90677134,11.300578 5.30912659,11.300578 L6.34936212,11.300578 L6.34936212,10.2890173 C6.34936212,9.89402697 6.67320903,9.56647399 7.08537782,9.56647399 C7.48773307,9.56647399 7.82139352,9.89402697 7.82139352,10.2890173 L7.82139352,11.300578 L8.85181551,11.300578 C9.25417076,11.300578 9.58783121,11.628131 9.58783121,12.0231214 C9.58783121,12.4277457 9.25417076,12.7456647 8.85181551,12.7456647 M14.1118744,4.09441233 C13.1697743,4.08477842 12.2374877,4.0655106 11.3052012,4.0655106 L11.3052012,3.88246628 C11.2953876,2.43737958 10.0883219,1.25240848 8.60647694,1.24277457 L7.63493621,1.24277457 C7.34052993,1.24277457 7.09519136,1.01156069 7.09519136,0.722543353 C7.09519136,0.327552987 6.77134446,0 6.35917566,0 C5.95682041,0 5.62315996,0.327552987 5.62315996,0.722543353 C5.62315996,1.80154143 6.52600589,2.68786127 7.63493621,2.68786127 L8.60647694,2.68786127 C9.27379784,2.68786127 9.83316977,3.22736031 9.83316977,3.89210019 L9.83316977,4.05587669 C8.49852797,4.05587669 7.18351325,4.07514451 5.89793916,4.09441233 C2.4828263,4.09441233 0,6.522158 0,9.87475915 L0,14.1811175 C0,17.5337187 2.4828263,19.9614644 5.88812561,19.9614644 C7.25220805,19.9903661 8.63591757,20 10.0098135,20 C11.3837095,20 12.747792,19.9903661 14.1118744,19.9614644 C17.5171737,19.9614644 20,17.5337187 20,14.1811175 L20,9.87475915 C20,6.522158 17.5171737,4.09441233 14.1118744,4.09441233"></path>
        </g>
    </g>
</svg>