<?xml version="1.0" encoding="UTF-8"?>
<svg width="24px" height="24px" viewBox="0 0 24 24" version="1.1" xmlns="http://www.w3.org/2000/svg" xmlns:xlink="http://www.w3.org/1999/xlink">
    <!-- Generator: Sketch 64 (93537) - https://sketch.com -->
    <title>@1xIconly/Light-outline/Home</title>
    <desc>Created with Sketch.</desc>
    <g id="Iconly/Light-outline/Home" stroke="none" stroke-width="1" fill="none" fill-rule="evenodd">
        <g id="Home" transform="translate(2.500000, 2.000000)" fill="#200E32" fill-rule="nonzero">
            <path d="M17.6104,16.0983 L17.5994,16.2583 C17.5194,17.5693 16.4294,18.5983 15.0894,18.5983 L13.2304,18.5983 C13.0304,18.5593 12.8804,18.3783 12.8804,18.1683 L12.8804,15.1593 C12.7994,14.1093 11.9294,13.2883 10.8604,13.2883 L8.0404,13.2883 C6.9904,13.3693 6.1704,14.2393 6.1704,15.3093 L6.1704,18.0083 L6.1604,18.0593 L6.1394,18.2393 C6.1104,18.4493 5.9204,18.5983 5.7004,18.5983 L3.7504,18.5983 C2.4294,18.5183 1.3894,17.4283 1.3894,16.0983 L1.3894,7.9983 L1.4004,7.8383 C1.4504,7.4283 1.6604,7.0383 2.0094,6.7793 L8.0894,1.8783 L8.2404,1.7683 C9.0404,1.2393 10.1204,1.2683 10.8804,1.8783 L16.9804,6.7583 L17.1104,6.8693 C17.4204,7.1683 17.5994,7.5693 17.6104,7.9983 L17.6104,16.0983 Z M18.9904,7.7883 C18.9204,6.9493 18.5094,6.1783 17.8394,5.6593 L11.7504,0.7883 L11.5894,0.6683 C10.2804,-0.2607 8.5004,-0.2207 7.2304,0.7883 L1.0004,5.7983 C0.3804,6.3483 0.0094,7.1383 0.0004,7.9893 L0.0004,16.2983 C0.1104,18.3593 1.8204,19.9983 3.9104,19.9983 L5.7004,19.9983 L5.8304,19.9893 C6.7004,19.9283 7.4004,19.2793 7.5194,18.4283 L7.5304,18.3593 L7.5404,18.3383 C7.5494,18.2883 7.5604,18.2183 7.5604,18.1593 L7.5604,15.3093 L7.5704,15.2183 C7.6104,14.9183 7.8704,14.6883 8.1894,14.6783 L10.8604,14.6783 L10.9504,14.6883 C11.2594,14.7393 11.4904,14.9983 11.4904,15.3093 L11.4904,18.1683 L11.5004,18.3093 C11.5704,19.2393 12.3394,19.9793 13.2904,19.9983 L15.2804,19.9983 C17.3494,19.8883 19.0004,18.1883 19.0004,16.0983 L19.0004,7.9893 L18.9904,7.7883 Z"></path>
        </g>
    </g>
</svg>