<?xml version="1.0" encoding="UTF-8"?>
<svg width="24px" height="24px" viewBox="0 0 24 24" version="1.1" xmlns="http://www.w3.org/2000/svg" xmlns:xlink="http://www.w3.org/1999/xlink">
    <!-- Generator: Sketch 64 (93537) - https://sketch.com -->
    <title>@1xIconly/Bold/Setting</title>
    <desc>Created with Sketch.</desc>
    <g id="Iconly/Bold/Setting" stroke="none" stroke-width="1" fill="none" fill-rule="evenodd">
        <g id="Setting" transform="translate(2.500000, 2.000000)" fill="#200E32" fill-rule="nonzero">
            <path d="M11.5143,11.9604 C10.9853,12.4814 10.2853,12.7704 9.5353,12.7604 L9.5243,12.7604 C8.3843,12.7604 7.3653,12.0904 6.9343,11.0614 C6.4943,10.0404 6.7443,8.8504 7.5443,8.0704 C8.3543,7.2804 9.5653,7.0504 10.6153,7.4814 C11.6643,7.9004 12.3543,8.9104 12.3443,10.0204 C12.3443,10.7504 12.0443,11.4504 11.5143,11.9604 M17.9853,11.7314 C17.0353,11.1894 16.7043,10.0004 17.2353,9.0614 C17.4143,8.7604 17.6743,8.5004 17.9853,8.3304 C18.6153,7.9814 19.0043,7.3204 19.0043,6.6104 C19.0043,6.2604 18.9053,5.9204 18.7353,5.6204 L18.0543,4.4504 C17.5043,3.5204 16.2943,3.1894 15.3253,3.7104 C15.0143,3.8804 14.6643,3.9814 14.3153,3.9814 C13.1843,3.9814 12.2743,3.0904 12.2743,1.9904 C12.2743,1.4504 12.0653,0.9394 11.6743,0.5704 C11.2853,0.1894 10.7643,-0.0096 10.2143,0.0004 L8.8543,0.0004 C7.7243,0.0004 6.8153,0.8904 6.8153,1.9904 C6.8153,2.5104 6.6043,3.0204 6.2243,3.3904 C5.8443,3.7604 5.3253,3.9704 4.7853,3.9704 C4.4343,3.9704 4.0843,3.8804 3.7643,3.7104 C3.2943,3.4394 2.7353,3.3604 2.2043,3.5004 C1.6743,3.6404 1.2243,3.9814 0.9543,4.4504 L0.3153,5.5704 C-0.2257,6.5104 0.1043,7.7004 1.0543,8.2404 C1.9943,8.7904 2.3253,9.9704 1.8043,10.9104 C1.6243,11.2204 1.3653,11.4704 1.0543,11.6404 C0.5653,11.9104 0.2043,12.3604 0.0653,12.8904 C-0.0757,13.4204 0.0143,13.9814 0.3153,14.4504 L0.9543,15.5804 C1.2243,16.0304 1.6743,16.3704 2.1943,16.5104 C2.7143,16.6404 3.2743,16.5704 3.7443,16.3114 C4.0543,16.1204 4.4143,16.0204 4.7853,16.0204 C5.9143,16.0204 6.8153,16.9104 6.8153,18.0104 C6.8153,18.5304 7.0143,19.0304 7.3943,19.4104 C7.7643,19.7804 8.2743,20.0004 8.8153,20.0004 L10.1843,20.0004 C11.3153,20.0004 12.2243,19.1104 12.2243,18.0204 C12.2243,17.4904 12.4343,16.9814 12.8253,16.6104 C13.2043,16.2314 13.7243,16.0204 14.2643,16.0204 C14.6153,16.0204 14.9643,16.1204 15.2853,16.2904 C15.5843,16.4704 15.9443,16.5614 16.3043,16.5614 C17.0243,16.5614 17.6943,16.1804 18.0543,15.5614 L18.7353,14.4304 C19.2743,13.4814 18.9443,12.2804 17.9853,11.7314"></path>
        </g>
    </g>
</svg>